<svg width="182" height="61" viewBox="0 0 182 61" fill="none" xmlns="http://www.w3.org/2000/svg">
<g id="Group">
<g id="Group_2">
<g id="Group_3">
<path id="Vector" d="M167.507 6.85503e-05H14.5015C13.9438 6.85503e-05 13.3928 6.85504e-05 12.8365 0.00311855C12.3709 0.00616855 11.909 0.0150288 11.4389 0.022486C10.4176 0.0345363 9.39871 0.124625 8.39109 0.291969C7.38488 0.462956 6.4102 0.785315 5.5 1.24814C4.59091 1.71489 3.76025 2.32137 3.03815 3.0456C2.31227 3.76779 1.70718 4.60254 1.24617 5.51776C0.783885 6.43116 0.463335 7.40995 0.295592 8.42033C0.126253 9.42943 0.0351309 10.4502 0.023042 11.4734C0.00892783 11.9409 0.00743732 12.4101 0 12.8777V48.1269C0.00743732 48.6004 0.00892783 49.0592 0.023042 49.5328C0.0351346 50.556 0.126257 51.5767 0.295592 52.5857C0.462872 53.5967 0.783441 54.576 1.24617 55.4898C1.70697 56.402 2.31214 57.2334 3.03815 57.9516C3.75751 58.679 4.58871 59.2859 5.5 59.7491C6.41019 60.2132 7.38477 60.5375 8.39109 60.7111C9.39888 60.8771 10.4177 60.9672 11.4389 60.9807C11.909 60.9911 12.3709 60.997 12.8365 60.997C13.3928 61.0001 13.9438 61.0001 14.5015 61.0001H167.507C168.053 61.0001 168.609 61.0001 169.155 60.997C169.619 60.997 170.094 60.9911 170.557 60.9807C171.577 60.9679 172.594 60.8778 173.599 60.7111C174.609 60.5362 175.587 60.212 176.502 59.7491C177.412 59.2857 178.242 58.6788 178.961 57.9516C179.685 57.2306 180.292 56.3998 180.758 55.4898C181.218 54.5754 181.535 53.5961 181.7 52.5857C181.87 51.5765 181.964 50.5561 181.982 49.5328C181.988 49.0592 181.988 48.6004 181.988 48.1269C182 47.5729 182 47.0219 182 46.4589V14.5427C182 13.9842 182 13.4302 181.988 12.8777C181.988 12.4101 181.988 11.9409 181.982 11.4733C181.964 10.45 181.87 9.4295 181.7 8.42027C181.535 7.41047 181.217 6.43176 180.758 5.5177C179.819 3.68324 178.331 2.19001 176.502 1.24801C175.587 0.786309 174.609 0.464035 173.599 0.291832C172.594 0.12375 171.577 0.0336304 170.557 0.0222725C170.094 0.0148305 169.619 0.00589405 169.155 0.0029203C168.609 -0.0001297 168.053 -0.0001297 167.507 -0.0001297V6.85503e-05Z" fill="#A6A6A6"/>
<path id="Vector_2" d="M12.844 59.6656C12.3807 59.6656 11.9284 59.6597 11.4687 59.6493C10.5163 59.6369 9.56605 59.5537 8.62587 59.4006C7.74919 59.2492 6.89993 58.9676 6.10609 58.565C5.31953 58.1658 4.60213 57.6424 3.98136 57.0147C3.35161 56.3945 2.82731 55.6751 2.42924 54.8851C2.02679 54.0899 1.74827 53.2376 1.60338 52.3578C1.44692 51.4125 1.36226 50.4566 1.35015 49.4985C1.3405 49.1768 1.32788 48.106 1.32788 48.106V12.8776C1.32788 12.8776 1.34133 11.8232 1.35022 11.5134C1.36182 10.5568 1.44598 9.6024 1.60198 8.65854C1.74714 7.77636 2.02587 6.92159 2.42854 6.12383C2.82515 5.33436 3.34653 4.61444 3.97249 3.99196C4.59775 3.36357 5.31745 2.83742 6.10535 2.43269C6.89736 2.03144 7.74502 1.75182 8.61992 1.60319C9.5632 1.4485 10.5167 1.36487 11.4724 1.35299L12.8448 1.33437H169.148L170.537 1.35374C171.484 1.36502 172.429 1.44791 173.363 1.60169C174.247 1.75219 175.103 2.03376 175.905 2.43716C177.483 3.2528 178.767 4.54322 179.578 6.12756C179.974 6.91981 180.248 7.7676 180.392 8.64216C180.549 9.59376 180.638 10.5557 180.656 11.5202C180.66 11.952 180.66 12.4159 180.66 12.8776C180.672 13.4495 180.672 13.9938 180.672 14.5426V46.4588C180.672 47.0129 180.672 47.5535 180.66 48.0985C180.66 48.5944 180.66 49.0487 180.654 49.5163C180.637 50.4636 180.55 51.4083 180.394 52.3429C180.253 53.229 179.976 54.088 179.573 54.8896C179.172 55.6711 178.651 56.3842 178.029 57.0028C177.407 57.6338 176.689 58.1604 175.9 58.5621C175.101 58.9678 174.246 59.2504 173.363 59.4006C172.423 59.5545 171.473 59.6377 170.52 59.6493C170.075 59.6597 169.608 59.6656 169.155 59.6656L167.507 59.6687L12.844 59.6656Z" fill="black"/>
</g>
<g id="&#60;Group&#62;">
<g id="&#60;Group&#62;_2">
<g id="&#60;Group&#62;_3">
<path id="&#60;Path&#62;" d="M37.6716 30.9581C37.688 29.6853 38.0252 28.4372 38.6518 27.3301C39.2785 26.2231 40.1742 25.2929 41.2558 24.6262C40.5687 23.6424 39.6623 22.8327 38.6086 22.2615C37.5548 21.6903 36.3828 21.3733 35.1855 21.3358C32.6315 21.067 30.1555 22.8681 28.8541 22.8681C27.5274 22.8681 25.5236 21.3624 23.3658 21.407C21.9701 21.4522 20.6098 21.8591 19.4176 22.5882C18.2254 23.3172 17.2419 24.3435 16.5628 25.567C13.6214 30.6733 15.8154 38.1779 18.6331 42.3055C20.0428 44.3266 21.6904 46.5843 23.8463 46.5043C25.9559 46.4165 26.7438 45.1554 29.2903 45.1554C31.8131 45.1554 32.5523 46.5043 34.7519 46.4534C37.0156 46.4165 38.4419 44.4232 39.8022 42.3829C40.8151 40.9428 41.5945 39.3511 42.1116 37.6668C40.7964 37.1091 39.6741 36.1755 38.8845 34.9825C38.095 33.7895 37.6731 32.3899 37.6716 30.9581Z" fill="white"/>
<path id="&#60;Path&#62;_2" d="M33.5171 18.6221C34.7514 17.1365 35.3595 15.2269 35.2122 13.2989C33.3265 13.4975 31.5847 14.4012 30.3337 15.8298C29.7221 16.5278 29.2537 17.3398 28.9552 18.2193C28.6567 19.0989 28.5341 20.0288 28.5942 20.956C29.5374 20.9657 30.4705 20.7607 31.3232 20.3565C32.176 19.9522 32.9261 19.3592 33.5171 18.6221Z" fill="white"/>
</g>
</g>
<g id="Group_4">
<path id="Vector_3" d="M64.3386 41.388H57.1395L55.4106 46.5066H52.3613L59.1802 27.5691H62.3483L69.1672 46.5066H66.066L64.3386 41.388ZM57.8851 39.026H63.5916L60.7785 30.7189H60.6997L57.8851 39.026Z" fill="white"/>
<path id="Vector_4" d="M83.8938 39.6035C83.8938 43.8941 81.6035 46.6507 78.1473 46.6507C77.2718 46.6966 76.401 46.4944 75.6348 46.0672C74.8686 45.6399 74.2378 45.005 73.8147 44.2351H73.7493V51.0737H70.9229V32.6993H73.6588V34.9957H73.7108C74.1533 34.2295 74.7947 33.5978 75.5668 33.168C76.3388 32.7382 77.2127 32.5263 78.0953 32.5548C81.5901 32.5548 83.8938 35.3249 83.8938 39.6035ZM80.9886 39.6035C80.9886 36.8082 79.5479 34.9704 77.3497 34.9704C75.1901 34.9704 73.7375 36.8469 73.7375 39.6035C73.7375 42.3854 75.1901 44.2485 77.3497 44.2485C79.5479 44.2485 80.9886 42.4242 80.9886 39.6035Z" fill="white"/>
<path id="Vector_5" d="M99.0496 39.6035C99.0496 43.894 96.7593 46.6507 93.3031 46.6507C92.4275 46.6966 91.5568 46.4944 90.7906 46.0671C90.0243 45.6399 89.3936 45.005 88.9705 44.2351H88.9051V51.0737H86.0786V32.6993H88.8145V34.9957H88.8665C89.309 34.2295 89.9504 33.5978 90.7225 33.168C91.4945 32.7382 92.3684 32.5263 93.251 32.5548C96.7459 32.5548 99.0496 35.3248 99.0496 39.6035ZM96.1444 39.6035C96.1444 36.8082 94.7037 34.9704 92.5054 34.9704C90.3459 34.9704 88.8932 36.8469 88.8932 39.6035C88.8932 42.3854 90.3459 44.2485 92.5054 44.2485C94.7037 44.2485 96.1444 42.4241 96.1444 39.6035H96.1444Z" fill="white"/>
<path id="Vector_6" d="M109.066 41.2302C109.276 43.1081 111.095 44.3412 113.581 44.3412C115.964 44.3412 117.678 43.1081 117.678 41.4148C117.678 39.9449 116.644 39.0647 114.196 38.4616L111.749 37.8703C108.281 37.0304 106.67 35.4041 106.67 32.7651C106.67 29.4977 109.51 27.2534 113.543 27.2534C117.534 27.2534 120.27 29.4977 120.362 32.7651H117.509C117.338 30.8753 115.78 29.7345 113.503 29.7345C111.226 29.7345 109.668 30.8887 109.668 32.5686C109.668 33.9074 110.663 34.6952 113.097 35.2983L115.178 35.8106C119.053 36.7295 120.663 38.2903 120.663 41.0603C120.663 44.6032 117.849 46.8222 113.372 46.8222C109.184 46.8222 106.356 44.6553 106.173 41.23L109.066 41.2302Z" fill="white"/>
<path id="Vector_7" d="M126.763 29.4334V32.7008H129.382V34.9451H126.763V42.5567C126.763 43.7392 127.288 44.2902 128.439 44.2902C128.75 44.2848 129.06 44.2629 129.369 44.2247V46.4556C128.851 46.5525 128.325 46.5964 127.799 46.5866C125.011 46.5866 123.924 45.5367 123.924 42.859V34.9451H121.921V32.7008H123.923V29.4334H126.763Z" fill="white"/>
<path id="Vector_8" d="M130.898 39.605C130.898 35.2609 133.45 32.5311 137.429 32.5311C141.422 32.5311 143.961 35.2608 143.961 39.605C143.961 43.9611 141.435 46.679 137.429 46.679C133.425 46.679 130.898 43.9611 130.898 39.605ZM141.081 39.605C141.081 36.625 139.719 34.8662 137.429 34.8662C135.139 34.8662 133.778 36.6384 133.778 39.605C133.778 42.5969 135.139 44.3424 137.429 44.3424C139.719 44.3424 141.081 42.5969 141.081 39.605H141.081Z" fill="white"/>
<path id="Vector_9" d="M146.292 32.6992H148.988V35.0492H149.053C149.235 34.3152 149.664 33.6666 150.267 33.2123C150.871 32.7581 151.611 32.5258 152.365 32.5547C152.691 32.5536 153.016 32.589 153.333 32.6605V35.3113C152.922 35.1853 152.493 35.1275 152.064 35.1401C151.653 35.1234 151.244 35.196 150.864 35.3529C150.484 35.5098 150.142 35.7473 149.862 36.049C149.582 36.3508 149.371 36.7097 149.243 37.1012C149.114 37.4926 149.072 37.9072 149.118 38.3166V46.5061H146.292L146.292 32.6992Z" fill="white"/>
<path id="Vector_10" d="M166.365 42.4525C165.985 44.9589 163.551 46.679 160.436 46.679C156.43 46.679 153.944 43.9879 153.944 39.6705C153.944 35.3398 156.444 32.531 160.317 32.531C164.127 32.531 166.523 35.1551 166.523 39.3414V40.3124H156.797V40.4837C156.752 40.9918 156.816 41.5037 156.983 41.9854C157.151 42.467 157.419 42.9074 157.769 43.2773C158.119 43.6472 158.544 43.9381 159.015 44.1307C159.486 44.3233 159.993 44.4132 160.501 44.3945C161.169 44.4572 161.84 44.3021 162.413 43.9522C162.985 43.6023 163.43 43.0763 163.681 42.4525L166.365 42.4525ZM156.81 38.3317H163.695C163.72 37.8748 163.651 37.4176 163.492 36.9888C163.333 36.5599 163.087 36.1687 162.77 35.8397C162.452 35.5106 162.071 35.2508 161.649 35.0767C161.227 34.9025 160.773 34.8177 160.317 34.8275C159.857 34.8247 159.401 34.9134 158.975 35.0884C158.549 35.2634 158.162 35.5212 157.836 35.847C157.51 36.1728 157.251 36.5601 157.075 36.9865C156.899 37.413 156.809 37.8702 156.81 38.3317V38.3317Z" fill="white"/>
</g>
</g>
</g>
<g id="&#60;Group&#62;_4">
<g id="Group_5">
<path id="Vector_11" d="M57.5307 13.3152C58.1233 13.2726 58.7179 13.3624 59.2717 13.5781C59.8255 13.7937 60.3246 14.13 60.7331 14.5625C61.1416 14.995 61.4493 15.5131 61.6339 16.0793C61.8186 16.6454 61.8756 17.2457 61.8009 17.8366C61.8009 20.7437 60.2339 22.4147 57.5307 22.4147H54.2527V13.3152H57.5307ZM55.6622 21.1278H57.3732C57.7967 21.1532 58.2204 21.0836 58.6136 20.924C59.0069 20.7645 59.3597 20.5191 59.6463 20.2056C59.933 19.8921 60.1464 19.5184 60.2709 19.1119C60.3954 18.7053 60.4279 18.276 60.3661 17.8552C60.4234 17.436 60.3876 17.0094 60.2612 16.6058C60.1348 16.2022 59.9209 15.8316 59.6349 15.5206C59.3488 15.2096 58.9977 14.9659 58.6067 14.8069C58.2157 14.648 57.7945 14.5777 57.3732 14.6011H55.6622V21.1278Z" fill="white"/>
<path id="Vector_12" d="M63.3932 18.9793C63.3502 18.5281 63.4016 18.0728 63.5444 17.6426C63.6871 17.2124 63.9179 16.8169 64.222 16.4815C64.5261 16.146 64.8968 15.878 65.3102 15.6945C65.7237 15.5111 66.1708 15.4164 66.6229 15.4164C67.0751 15.4164 67.5222 15.5111 67.9357 15.6945C68.3491 15.878 68.7198 16.146 69.0239 16.4815C69.328 16.8169 69.5588 17.2124 69.7015 17.6426C69.8443 18.0728 69.8957 18.5281 69.8527 18.9793C69.8965 19.4311 69.8457 19.887 69.7033 20.3179C69.561 20.7487 69.3303 21.145 69.0261 21.4811C68.722 21.8172 68.351 22.0858 67.9371 22.2696C67.5233 22.4535 67.0756 22.5484 66.6229 22.5484C66.1703 22.5484 65.7226 22.4535 65.3087 22.2696C64.8949 22.0858 64.5239 21.8172 64.2197 21.4811C63.9156 21.145 63.6849 20.7487 63.5426 20.3179C63.4002 19.887 63.3493 19.4311 63.3932 18.9793ZM68.4624 18.9793C68.4624 17.4908 67.7956 16.6204 66.6252 16.6204C65.4503 16.6204 64.7894 17.4908 64.7894 18.9794C64.7894 20.4798 65.4504 21.3436 66.6252 21.3436C67.7956 21.3435 68.4625 20.4738 68.4625 18.9793H68.4624Z" fill="white"/>
<path id="Vector_13" d="M78.4389 22.4147H77.0368L75.6214 17.3571H75.5144L74.1049 22.4147H72.7162L70.8284 15.5477H72.1993L73.4261 20.7876H73.5271L74.9352 15.5477H76.2318L77.6399 20.7876H77.7468L78.9677 15.5477H80.3193L78.4389 22.4147Z" fill="white"/>
<path id="Vector_14" d="M81.907 15.5472H83.2081V16.638H83.3091C83.4804 16.2462 83.7694 15.9178 84.1358 15.6985C84.5021 15.4792 84.9276 15.3799 85.3528 15.4146C85.6861 15.3895 86.0207 15.4399 86.3318 15.562C86.643 15.6842 86.9228 15.8749 87.1505 16.1202C87.3781 16.3655 87.5478 16.659 87.647 16.979C87.7461 17.299 87.7722 17.6372 87.7233 17.9687V22.414H86.3717V18.309C86.3717 17.2055 85.8935 16.6567 84.8939 16.6567C84.6676 16.6461 84.4418 16.6847 84.2318 16.7698C84.0218 16.855 83.8327 16.9846 83.6774 17.1499C83.5221 17.3152 83.4042 17.5122 83.3319 17.7274C83.2596 17.9427 83.2346 18.171 83.2586 18.3968V22.4141H81.907L81.907 15.5472Z" fill="white"/>
<path id="Vector_15" d="M89.877 12.867H91.2285V22.4147H89.877V12.867Z" fill="white"/>
<path id="Vector_16" d="M93.1075 18.9771C93.0645 18.5258 93.116 18.0704 93.2588 17.6402C93.4015 17.2101 93.6324 16.8146 93.9365 16.4791C94.2406 16.1436 94.6113 15.8756 95.0248 15.6921C95.4383 15.5087 95.8855 15.414 96.3376 15.414C96.7898 15.414 97.2369 15.5087 97.6504 15.6921C98.0639 15.8756 98.4346 16.1436 98.7387 16.4791C99.0429 16.8146 99.2737 17.2101 99.4165 17.6402C99.5592 18.0704 99.6108 18.5258 99.5677 18.9771C99.6115 19.4288 99.5606 19.8848 99.4182 20.3156C99.2758 20.7465 99.0451 21.1427 98.7409 21.4788C98.4367 21.8149 98.0658 22.0835 97.6519 22.2673C97.238 22.4511 96.7903 22.5461 96.3376 22.5461C95.885 22.5461 95.4373 22.4511 95.0234 22.2673C94.6095 22.0835 94.2385 21.8149 93.9343 21.4788C93.6301 21.1427 93.3994 20.7465 93.257 20.3156C93.1146 19.8848 93.0637 19.4288 93.1075 18.9771ZM98.1768 18.9771C98.1768 17.4886 97.5099 16.6181 96.3395 16.6181C95.1646 16.6181 94.5037 17.4886 94.5037 18.9771C94.5037 20.4775 95.1647 21.3413 96.3395 21.3413C97.5099 21.3413 98.1768 20.4715 98.1768 18.9771H98.1768Z" fill="white"/>
<path id="Vector_17" d="M100.991 20.4739C100.991 19.2378 101.909 18.5252 103.538 18.4239L105.393 18.3167V17.724C105.393 16.9987 104.915 16.5891 103.991 16.5891C103.236 16.5891 102.714 16.8669 102.564 17.3524H101.255C101.393 16.1729 102.5 15.4164 104.053 15.4164C105.77 15.4164 106.739 16.2734 106.739 17.724V22.4159H105.438V21.4508H105.331C105.114 21.797 104.809 22.0792 104.447 22.2686C104.086 22.458 103.681 22.5479 103.274 22.529C102.986 22.559 102.696 22.5282 102.421 22.4387C102.146 22.3492 101.892 22.2029 101.677 22.0093C101.462 21.8157 101.29 21.579 101.172 21.3145C101.054 21.0501 100.992 20.7637 100.991 20.4739ZM105.393 19.8871V19.313L103.721 19.4202C102.778 19.4835 102.35 19.8052 102.35 20.4106C102.35 21.0286 102.884 21.3883 103.62 21.3883C103.835 21.4101 104.053 21.3883 104.26 21.3241C104.466 21.2599 104.658 21.1547 104.824 21.0146C104.989 20.8746 105.125 20.7026 105.223 20.5089C105.321 20.3152 105.378 20.1037 105.393 19.8871Z" fill="white"/>
<path id="Vector_18" d="M108.515 18.9782C108.515 16.8084 109.628 15.4338 111.358 15.4338C111.786 15.414 112.211 15.5168 112.583 15.7301C112.955 15.9435 113.258 16.2586 113.458 16.6385H113.559V12.867H114.911V22.4147H113.616V21.3297H113.509C113.293 21.7072 112.979 22.0183 112.6 22.2295C112.221 22.4407 111.791 22.5438 111.358 22.5278C109.616 22.5279 108.515 21.1533 108.515 18.9782ZM109.911 18.9782C109.911 20.4347 110.596 21.3112 111.741 21.3112C112.88 21.3112 113.584 20.4221 113.584 18.9842C113.584 17.553 112.873 16.6513 111.741 16.6513C110.603 16.6513 109.911 17.5336 109.911 18.9782H109.911Z" fill="white"/>
<path id="Vector_19" d="M120.503 18.9793C120.46 18.5281 120.511 18.0728 120.654 17.6426C120.797 17.2124 121.028 16.8169 121.332 16.4815C121.636 16.146 122.006 15.878 122.42 15.6945C122.833 15.5111 123.28 15.4164 123.733 15.4164C124.185 15.4164 124.632 15.5111 125.045 15.6945C125.459 15.878 125.829 16.146 126.134 16.4815C126.438 16.8169 126.668 17.2124 126.811 17.6426C126.954 18.0728 127.005 18.5281 126.962 18.9793C127.006 19.4311 126.955 19.887 126.813 20.3179C126.671 20.7487 126.44 21.145 126.136 21.4811C125.832 21.8172 125.461 22.0858 125.047 22.2696C124.633 22.4535 124.185 22.5484 123.733 22.5484C123.28 22.5484 122.832 22.4535 122.418 22.2696C122.004 22.0858 121.634 21.8172 121.329 21.4811C121.025 21.145 120.795 20.7487 120.652 20.3179C120.51 19.887 120.459 19.4311 120.503 18.9793ZM125.572 18.9793C125.572 17.4908 124.905 16.6204 123.735 16.6204C122.56 16.6204 121.899 17.4908 121.899 18.9794C121.899 20.4798 122.56 21.3436 123.735 21.3436C124.905 21.3435 125.572 20.4738 125.572 18.9793Z" fill="white"/>
<path id="Vector_20" d="M128.776 15.5472H130.077V16.638H130.178C130.349 16.2462 130.638 15.9178 131.004 15.6985C131.371 15.4792 131.796 15.3799 132.221 15.4146C132.555 15.3895 132.889 15.4399 133.2 15.562C133.512 15.6842 133.791 15.8749 134.019 16.1202C134.247 16.3655 134.416 16.659 134.516 16.979C134.615 17.299 134.641 17.6372 134.592 17.9687V22.414H133.24V18.309C133.24 17.2055 132.762 16.6567 131.763 16.6567C131.536 16.6461 131.31 16.6847 131.1 16.7698C130.89 16.855 130.701 16.9846 130.546 17.1499C130.391 17.3152 130.273 17.5122 130.201 17.7274C130.128 17.9427 130.103 18.171 130.127 18.3968V22.4141H128.776V15.5472Z" fill="white"/>
<path id="Vector_21" d="M142.229 13.838V15.579H143.713V16.7205H142.229V20.2515C142.229 20.9708 142.525 21.2858 143.198 21.2858C143.37 21.2853 143.542 21.2748 143.713 21.2545V22.3834C143.47 22.4269 143.225 22.4501 142.978 22.4526C141.475 22.4526 140.876 21.9225 140.876 20.5985V16.7204H139.789V15.5789H140.876V13.838H142.229Z" fill="white"/>
<path id="Vector_22" d="M145.559 12.867H146.899V16.6512H147.006C147.186 16.2558 147.483 15.9255 147.856 15.7054C148.23 15.4852 148.662 15.386 149.094 15.4211C149.426 15.403 149.757 15.4585 150.065 15.5836C150.372 15.7088 150.649 15.9004 150.874 16.1449C151.099 16.3894 151.268 16.6808 151.368 16.9982C151.468 17.3156 151.497 17.6512 151.453 17.9812V22.4147H150.1V18.3155C150.1 17.2186 149.59 16.6631 148.635 16.6631C148.403 16.644 148.169 16.6761 147.951 16.757C147.732 16.8379 147.534 16.9657 147.369 17.1315C147.205 17.2974 147.079 17.4972 147 17.717C146.921 17.9368 146.89 18.1713 146.911 18.4041V22.4146H145.559L145.559 12.867Z" fill="white"/>
<path id="Vector_23" d="M159.334 20.5594C159.15 21.187 158.752 21.7299 158.21 22.0931C157.667 22.4563 157.015 22.6166 156.366 22.5461C155.915 22.558 155.467 22.4714 155.052 22.2922C154.638 22.1129 154.267 21.8454 153.966 21.5082C153.665 21.1709 153.441 20.7721 153.309 20.3392C153.177 19.9064 153.141 19.45 153.203 19.0017C153.142 18.552 153.179 18.0946 153.311 17.6605C153.443 17.2263 153.666 16.8256 153.965 16.4854C154.264 16.1452 154.633 15.8735 155.046 15.6887C155.46 15.5039 155.908 15.4102 156.36 15.4141C158.266 15.4141 159.415 16.7195 159.415 18.8758V19.3487H154.579V19.4246C154.558 19.6766 154.59 19.9303 154.672 20.1693C154.754 20.4084 154.886 20.6275 155.057 20.8128C155.229 20.998 155.438 21.1452 155.669 21.2449C155.901 21.3446 156.151 21.3947 156.403 21.3919C156.727 21.4308 157.054 21.3724 157.344 21.2242C157.634 21.076 157.874 20.8445 158.033 20.5594L159.334 20.5594ZM154.579 18.3464H158.039C158.056 18.1159 158.024 17.8844 157.947 17.6668C157.869 17.4492 157.747 17.2502 157.589 17.0826C157.43 16.9151 157.238 16.7827 157.025 16.694C156.812 16.6053 156.583 16.5622 156.353 16.5675C156.119 16.5646 155.887 16.6086 155.67 16.6969C155.454 16.7853 155.257 16.9162 155.092 17.082C154.927 17.2478 154.796 17.4451 154.708 17.6622C154.62 17.8794 154.576 18.112 154.579 18.3464H154.579Z" fill="white"/>
</g>
</g>
</g>
</svg>
