<svg width="203" height="61" viewBox="0 0 203 61" fill="none" xmlns="http://www.w3.org/2000/svg">
<g id="g4036">
<g id="g4038">
<path id="path4042" d="M195.198 60.8483H7.65199C3.52598 60.8483 0.150146 57.4341 0.150146 53.2612V7.73886C0.150146 3.56598 3.52598 0.151794 7.65199 0.151794H195.198C199.324 0.151794 202.7 3.56598 202.7 7.73886V53.2612C202.7 57.4341 199.324 60.8483 195.198 60.8483Z" fill="black"/>
<path id="path4044" d="M195.198 0.151794H7.65199C3.52598 0.151794 0.150146 3.56598 0.150146 7.73886V53.2612C0.150146 57.4341 3.52598 60.8483 7.65199 60.8483H195.198C199.324 60.8483 202.7 57.4341 202.7 53.2612V7.73886C202.7 3.56598 199.324 0.151794 195.198 0.151794ZM195.198 1.36573C198.673 1.36573 201.5 4.22514 201.5 7.73886V53.2612C201.5 56.7756 198.673 59.635 195.198 59.635H7.65199C4.17774 59.635 1.35044 56.7756 1.35044 53.2612V7.73886C1.35044 4.22514 4.17774 1.36573 7.65199 1.36573H195.198Z" fill="#A6A6A6"/>
<path id="path4046" d="M71.2952 15.6951C71.2952 16.9664 70.923 17.9788 70.1774 18.734C69.3306 19.6321 68.2269 20.0814 66.8702 20.0814C65.5708 20.0814 64.4661 19.6261 63.5576 18.7145C62.6475 17.8034 62.1934 16.6737 62.1934 15.3258C62.1934 13.9773 62.6475 12.8482 63.5576 11.9365C64.4661 11.0254 65.5708 10.5696 66.8702 10.5696C67.5149 10.5696 68.1321 10.6971 68.7182 10.9514C69.3042 11.2063 69.7743 11.5447 70.126 11.9685L69.3347 12.7692C68.7387 12.0491 67.9182 11.6893 66.8702 11.6893C65.9225 11.6893 65.1032 12.026 64.4117 12.6999C63.72 13.3745 63.3743 14.2493 63.3743 15.3258C63.3743 16.4022 63.72 17.277 64.4117 17.9517C65.1032 18.6256 65.9225 18.9623 66.8702 18.9623C67.8754 18.9623 68.7135 18.6237 69.3845 17.9458C69.82 17.504 70.0719 16.8901 70.1393 16.1016H66.8702V15.008H71.2325C71.2746 15.2458 71.2952 15.474 71.2952 15.6951Z" fill="white"/>
<path id="path4048" d="M71.2953 15.6953H71.1453C71.1441 16.9376 70.7854 17.9025 70.0715 18.6269L70.0698 18.6281L70.0692 18.6293C69.2493 19.4964 68.1954 19.9279 66.8703 19.9298C65.6056 19.9279 64.5471 19.4917 63.6633 18.6073C62.7813 17.7212 62.3452 16.6394 62.3435 15.3259C62.3452 14.0119 62.7813 12.9307 63.6633 12.0451C64.5471 11.1602 65.6056 10.7233 66.8703 10.7215C67.4957 10.7215 68.0911 10.8449 68.659 11.0908C69.2275 11.3386 69.6766 11.6634 70.0112 12.0665L70.1261 11.9687L70.02 11.8614L69.2287 12.6627L69.3348 12.7694L69.4503 12.6723C68.8266 11.9165 67.9512 11.5354 66.8703 11.5377C65.8876 11.5365 65.023 11.8916 64.308 12.5911C63.586 13.2929 63.2232 14.2169 63.2244 15.3259C63.2232 16.435 63.586 17.359 64.308 18.0608C65.023 18.7603 65.8876 19.1154 66.8703 19.1142C67.9089 19.116 68.7939 18.7597 69.4907 18.0532C69.9561 17.5813 70.2199 16.9276 70.289 16.1148L70.303 15.95H67.0203V15.1599H71.2326V15.0082L71.0848 15.0349C71.126 15.2649 71.1453 15.4836 71.1453 15.6953H71.2953H71.4454C71.4454 15.4646 71.4242 15.2276 71.3803 14.981L71.3581 14.8564H66.7203V16.1018V16.2535H70.1395V16.1018L69.99 16.0887C69.9239 16.8523 69.6835 17.4272 69.2785 17.8386C68.6338 18.4882 67.8427 18.8088 66.8703 18.8107C65.9578 18.8095 65.1836 18.4917 64.5161 17.8427C63.855 17.196 63.5261 16.3704 63.5245 15.3259C63.5261 14.2815 63.855 13.4559 64.5161 12.8092C65.1836 12.1602 65.9578 11.8424 66.8703 11.8412C67.8848 11.8436 68.6509 12.1826 69.22 12.8673L69.3255 12.9941L70.2322 12.0759L70.3294 11.9776L70.2409 11.8714C69.8722 11.4269 69.3812 11.0741 68.7774 10.8122C68.1726 10.5496 67.5344 10.418 66.8703 10.418C65.5365 10.4168 64.3854 10.891 63.4517 11.8294C62.5146 12.7659 62.0423 13.9431 62.0435 15.3259C62.0423 16.7081 62.5146 17.886 63.4523 18.8231C64.3854 19.7609 65.5365 20.2345 66.8703 20.2332C68.2593 20.2345 69.4116 19.7679 70.286 18.839L70.1776 18.7342L70.2836 18.8415C71.0608 18.0561 71.4464 16.9951 71.4454 15.6953H71.2953Z" fill="white"/>
<path id="path4050" d="M78.2109 11.8922H74.1113V14.7789H77.8084V15.8729H74.1113V18.7597H78.2109V19.8782H72.9556V10.7737H78.2109V11.8922Z" fill="white"/>
<path id="path4052" d="M78.2108 11.8921V11.7404H73.9612V14.9306H77.6582V15.7207L73.9612 15.7212V18.9114H78.0608V19.7264H73.1055V10.9254H78.0608V11.8921H78.2108V11.7404V11.8921H78.3608V10.7737V10.6219H72.8054V20.0299H78.3608V18.7596V18.6079H74.2612V16.0247H77.9583V14.7789V14.6271H74.2612V12.0439H78.3608V11.8921H78.2108Z" fill="white"/>
<path id="path4054" d="M83.0889 19.8782H81.9313V11.8922H79.417V10.7737H85.6032V11.8922H83.0889V19.8782Z" fill="white"/>
<path id="path4056" d="M83.089 19.8781V19.7264H82.0815V11.7404H79.5672V10.9254H85.4533V11.7404H82.9389V19.8781H83.089V19.7264V19.8781H83.239V12.0439H85.7533V10.7737V10.6219H79.2671V11.8921V12.0439H81.7814V20.0299H83.089H83.239V19.8781H83.089Z" fill="white"/>
<path id="path4058" d="M90.0791 19.8782V10.7737H91.2354V19.8782H90.0791Z" fill="white"/>
<path id="path4060" d="M90.0792 19.8781H90.2293V10.9254H91.0855V19.7264H90.0792V19.8781H90.2293H90.0792V20.0299H91.2356H91.3856V10.6219H90.0792H89.9292V20.0299H90.0792V19.8781Z" fill="white"/>
<path id="path4062" d="M96.3665 19.8782H95.209V11.8922H92.6948V10.7737H98.8809V11.8922H96.3665V19.8782Z" fill="white"/>
<path id="path4064" d="M96.3667 19.8781V19.7264H95.3592V11.7404H92.845V10.9254H98.7309V11.7404H96.2166V19.8781H96.3667V19.7264V19.8781H96.5167V12.0439H99.031V10.7737V10.6219H92.5449V11.8921V12.0439H95.0591V20.0299H96.3667H96.5167V19.8781H96.3667Z" fill="white"/>
<path id="path4066" d="M104.845 17.9392C105.511 18.6215 106.327 18.9623 107.291 18.9623C108.255 18.9623 109.071 18.6215 109.736 17.9392C110.403 17.257 110.737 16.3849 110.737 15.3258C110.737 14.2666 110.403 13.3946 109.736 12.7123C109.071 12.0301 108.255 11.6893 107.291 11.6893C106.327 11.6893 105.511 12.0301 104.845 12.7123C104.18 13.3946 103.846 14.2666 103.846 15.3258C103.846 16.3849 104.18 17.257 104.845 17.9392ZM110.592 18.7014C109.706 19.6219 108.606 20.0814 107.291 20.0814C105.974 20.0814 104.874 19.6219 103.991 18.7014C103.105 17.782 102.665 16.6566 102.665 15.3258C102.665 13.995 103.105 12.8694 103.991 11.9501C104.874 11.0295 105.974 10.5696 107.291 10.5696C108.599 10.5696 109.697 11.032 110.586 11.9561C111.474 12.8802 111.918 14.0034 111.918 15.3258C111.918 16.6566 111.475 17.782 110.592 18.7014Z" fill="white"/>
<path id="path4068" d="M104.845 17.9394L104.738 18.046C105.429 18.7556 106.291 19.116 107.291 19.1142C108.289 19.116 109.153 18.7556 109.842 18.046C110.538 17.3359 110.888 16.4171 110.887 15.3259C110.888 14.2348 110.538 13.316 109.842 12.6058C109.153 11.8963 108.289 11.5359 107.291 11.5377C106.291 11.5359 105.429 11.8963 104.738 12.6058C104.044 13.316 103.694 14.2348 103.696 15.3259C103.694 16.4171 104.044 17.3359 104.738 18.046L104.845 17.9394L104.952 17.8327C104.315 17.1776 103.997 16.3537 103.996 15.3259C103.997 14.2982 104.315 13.4742 104.952 12.8192C105.594 12.1643 106.361 11.843 107.291 11.8412C108.22 11.843 108.988 12.1643 109.629 12.8192C110.267 13.4742 110.585 14.2982 110.586 15.3259C110.585 16.3537 110.267 17.1776 109.629 17.8327C108.988 18.4876 108.22 18.8088 107.291 18.8107C106.361 18.8088 105.594 18.4876 104.952 17.8327L104.845 17.9394ZM110.591 18.7016L110.484 18.5961C109.624 19.4876 108.572 19.9279 107.291 19.9298C106.009 19.9279 104.957 19.4876 104.098 18.5961L104.094 18.5914L104.098 18.5961C103.24 17.7016 102.816 16.6229 102.815 15.3259C102.816 14.029 103.24 12.9503 104.098 12.0558C104.957 11.1643 106.009 10.7233 107.291 10.7215C108.564 10.7233 109.613 11.1661 110.478 12.0623C111.34 12.9609 111.766 14.038 111.768 15.3259C111.766 16.6229 111.341 17.7016 110.484 18.5961L110.591 18.7016L110.699 18.807C111.609 17.8623 112.069 16.6904 112.068 15.3259C112.069 13.9692 111.607 12.7997 110.693 11.8508C109.779 10.8981 108.634 10.4163 107.291 10.418C105.94 10.4163 104.792 10.8958 103.883 11.8448V11.8442C102.972 12.7896 102.513 13.9615 102.515 15.3259C102.513 16.6904 102.972 17.8623 103.883 18.8076L103.887 18.8119L103.883 18.807C104.792 19.756 105.94 20.2345 107.291 20.2332C108.64 20.2345 109.789 19.756 110.699 18.807L110.591 18.7016Z" fill="white"/>
<path id="path4070" d="M113.541 19.8782V10.7737H114.949L119.324 17.8564H119.374L119.324 16.1018V10.7737H120.482V19.8782H119.274L114.697 12.4522H114.647L114.697 14.2074V19.8782H113.541Z" fill="white"/>
<path id="path4072" d="M113.541 19.8781H113.691V10.9254H114.866L119.241 18.0081H119.374H119.528L119.474 16.0995V10.9254H120.332V19.7264H119.357L114.78 12.3005H114.647H114.493L114.547 14.2098V19.7264H113.541V19.8781H113.691H113.541V20.0299H114.697H114.847V14.205L114.797 12.4481L114.647 12.4522V12.604H114.697V12.4522L114.57 12.5329L119.191 20.0299H120.482H120.632V10.6219H119.324H119.174V16.1036L119.224 17.8604L119.374 17.8563V17.7046H119.324V17.8563L119.451 17.7758L115.032 10.6219H113.541H113.391V20.0299H113.541V19.8781Z" fill="white"/>
<path id="path4074" d="M160.594 45.6742H163.393V26.7047H160.594V45.6742ZM185.81 33.5379L182.601 41.7621H182.505L179.174 33.5379H176.159L181.153 45.0327L178.306 51.4267H181.227L188.924 33.5379H185.81ZM169.933 43.5196C169.015 43.5196 167.737 43.056 167.737 41.9085C167.737 40.4444 169.33 39.8831 170.705 39.8831C171.936 39.8831 172.514 40.1515 173.263 40.518C173.045 42.2748 171.549 43.5196 169.933 43.5196ZM170.271 33.1229C168.244 33.1229 166.145 34.0262 165.276 36.0273L167.761 37.0765C168.292 36.0273 169.281 35.6853 170.319 35.6853C171.767 35.6853 173.239 36.5644 173.263 38.1262V38.3212C172.756 38.0284 171.671 37.5892 170.343 37.5892C167.665 37.5892 164.937 39.0775 164.937 41.8598C164.937 44.398 167.134 46.0333 169.594 46.0333C171.477 46.0333 172.514 45.1792 173.167 44.1787H173.263V45.6427H175.965V38.3698C175.965 35.0025 173.48 33.1229 170.271 33.1229ZM152.969 35.8471H148.987V29.3448H152.969C155.062 29.3448 156.25 31.0974 156.25 32.5959C156.25 34.0659 155.062 35.8471 152.969 35.8471ZM152.897 26.7047H146.189V45.6742H148.987V38.4872H152.897C156 38.4872 159.05 36.2152 159.05 32.5959C159.05 28.9767 156 26.7047 152.897 26.7047ZM116.316 43.5231C114.382 43.5231 112.763 41.8853 112.763 39.6359C112.763 37.3628 114.382 35.7002 116.316 35.7002C118.226 35.7002 119.724 37.3628 119.724 39.6359C119.724 41.8853 118.226 43.5231 116.316 43.5231ZM119.531 34.6001H119.434C118.806 33.8424 117.597 33.1579 116.074 33.1579C112.884 33.1579 109.959 35.9935 109.959 39.6359C109.959 43.254 112.884 46.0653 116.074 46.0653C117.597 46.0653 118.806 45.3807 119.434 44.5989H119.531V45.5277C119.531 47.9972 118.226 49.3172 116.123 49.3172C114.407 49.3172 113.343 48.07 112.908 47.019L110.467 48.0457C111.168 49.7569 113.029 51.8594 116.123 51.8594C119.41 51.8594 122.19 49.9033 122.19 45.1365V33.5491H119.531V34.6001ZM124.123 45.6742H126.927V26.7041H124.123V45.6742ZM131.061 39.416C130.988 36.9223 132.97 35.6515 134.396 35.6515C135.509 35.6515 136.451 36.2134 136.765 37.0208L131.061 39.416ZM139.763 37.265C139.231 35.8222 137.611 33.1579 134.3 33.1579C131.012 33.1579 128.281 35.7736 128.281 39.6116C128.281 43.2297 130.988 46.0653 134.614 46.0653C137.539 46.0653 139.231 44.2563 139.932 43.2053L137.757 41.7383C137.032 42.8141 136.04 43.5231 134.614 43.5231C133.188 43.5231 132.173 42.8628 131.52 41.5676L140.052 37.9982L139.763 37.265ZM71.7835 35.1381V37.876H78.2613C78.068 39.416 77.5604 40.5404 76.7868 41.3228C75.8444 42.2765 74.3698 43.3275 71.7835 43.3275C67.7951 43.3275 64.6772 40.0763 64.6772 36.0427C64.6772 32.0091 67.7951 28.7574 71.7835 28.7574C73.9349 28.7574 75.5056 29.6132 76.666 30.7134L78.5755 28.7823C76.9562 27.2174 74.8046 26.0196 71.7835 26.0196C66.3205 26.0196 61.728 30.5178 61.728 36.0427C61.728 41.5676 66.3205 46.0653 71.7835 46.0653C74.7326 46.0653 76.9562 45.088 78.6963 43.254C80.4851 41.445 81.0412 38.9027 81.0412 36.8495C81.0412 36.2134 80.9931 35.6272 80.8959 35.1381H71.7835ZM88.406 43.5231C86.4718 43.5231 84.8039 41.9096 84.8039 39.6116C84.8039 37.2892 86.4718 35.7002 88.406 35.7002C90.3393 35.7002 92.0073 37.2892 92.0073 39.6116C92.0073 41.9096 90.3393 43.5231 88.406 43.5231ZM88.406 33.1579C84.8765 33.1579 82 35.8714 82 39.6116C82 43.3275 84.8765 46.0653 88.406 46.0653C91.9347 46.0653 94.8112 43.3275 94.8112 39.6116C94.8112 35.8714 91.9347 33.1579 88.406 33.1579ZM102.379 43.5231C100.446 43.5231 98.7777 41.9096 98.7777 39.6116C98.7777 37.2892 100.446 35.7002 102.379 35.7002C104.313 35.7002 105.981 37.2892 105.981 39.6116C105.981 41.9096 104.313 43.5231 102.379 43.5231ZM102.379 33.1579C98.8499 33.1579 95.974 35.8714 95.974 39.6116C95.974 43.3275 98.8499 46.0653 102.379 46.0653C105.908 46.0653 108.785 43.3275 108.785 39.6116C108.785 35.8714 105.908 33.1579 102.379 33.1579Z" fill="white"/>
<g id="g4076">
<g id="g4078">
<path id="path4098" d="M15.9186 49.2999L15.8072 49.1921C15.3706 48.7248 15.1128 47.9994 15.1128 47.0599V47.281V13.7219C15.1128 13.7189 15.1128 13.7166 15.1128 13.7142C15.1128 13.7171 15.1128 13.7195 15.1128 13.7225V13.9442C15.1128 12.927 15.4133 12.1607 15.9168 11.7012L34.5061 30.5012L15.9186 49.2999ZM15.1128 13.7124C15.1128 13.6288 15.115 13.5476 15.1192 13.4676C15.115 13.547 15.1128 13.6288 15.1128 13.7124ZM15.1192 13.464C15.1192 13.4629 15.1192 13.4617 15.1197 13.4605C15.1192 13.4617 15.1192 13.4629 15.1192 13.464ZM15.1197 13.4533C15.1197 13.4527 15.1197 13.4521 15.1197 13.4515C15.1197 13.4521 15.1197 13.4527 15.1197 13.4533Z" fill="url(#paint0_linear_802_45)"/>
</g>
</g>
<g id="g4100">
<g id="g4102">
<path id="path4118" d="M40.7016 36.9922L40.8429 36.911L48.1841 32.6924C48.884 32.29 49.3505 31.8022 49.5832 31.286C49.3511 31.8022 48.8844 32.2906 48.1841 32.6931L40.8429 36.9116L40.7016 36.9922ZM40.7034 36.7699L34.5061 30.5012L40.7028 24.2335L48.1841 28.532C49.1341 29.078 49.6675 29.7816 49.7566 30.5005C49.7566 30.5012 49.7566 30.5024 49.7566 30.5034C49.6675 31.2207 49.1341 31.9249 48.1841 32.4708L40.7034 36.7699Z" fill="url(#paint1_linear_802_45)"/>
</g>
</g>
<g id="g4120">
<g id="g4122">
<path id="path4134" d="M17.2438 50.0159C16.7245 50.0159 16.2714 49.8452 15.9181 49.5228L15.9187 49.5222C16.272 49.8446 16.7257 50.0159 17.245 50.0159C17.29 50.0159 17.3358 50.0147 17.3821 50.0124C17.3352 50.0147 17.2888 50.0159 17.2438 50.0159ZM17.2444 49.7936C16.7251 49.7942 16.272 49.6229 15.9187 49.3005V49.3L34.5062 30.5012L40.7034 36.77L18.9253 49.2845C18.3227 49.63 17.7518 49.7936 17.2444 49.7936ZM15.9134 49.5187C15.8806 49.4885 15.8483 49.4564 15.8167 49.4232L15.9134 49.5187Z" fill="url(#paint2_linear_802_45)"/>
</g>
</g>
<g id="g4136">
<g id="g4138">
<path id="path4156" d="M34.5063 30.5011L15.917 11.7012C16.2703 11.3793 16.7228 11.2086 17.2415 11.2086C17.7503 11.2086 18.3216 11.3728 18.9254 11.7189L40.7029 24.2335L34.5063 30.5011ZM40.8431 24.0919L18.9254 11.4974C18.3216 11.1511 17.7503 10.9869 17.2415 10.9869C17.2391 10.9869 17.2375 10.9869 17.2351 10.9869C17.2381 10.9869 17.2403 10.9869 17.2439 10.9869C17.7515 10.9869 18.3222 11.1505 18.9254 11.4968L40.8431 24.0919Z" fill="url(#paint3_linear_802_45)"/>
</g>
</g>
<path id="path4158" d="M17.3823 50.0124C17.854 49.985 18.3763 49.8209 18.9254 49.5061L40.7018 36.9922L18.9254 49.5061C18.3768 49.8215 17.854 49.985 17.3823 50.0124ZM15.9183 49.5227L15.9136 49.5186C15.9153 49.5198 15.917 49.5215 15.9183 49.5227ZM15.8168 49.4231L15.8074 49.4137V49.4131C15.811 49.4166 15.8138 49.4201 15.8168 49.4231Z" fill="black"/>
<g id="g4160">
<g id="g4162">
<path id="path4178" d="M40.7017 36.9922L40.843 36.911L40.7017 36.9922Z" fill="url(#paint4_linear_802_45)"/>
</g>
</g>
<g id="g4180">
<g id="g4182">
<path id="path4194" d="M17.2452 50.0159C16.7259 50.0159 16.2722 49.8446 15.9189 49.5222L15.9183 49.5228C15.917 49.5215 15.9153 49.5199 15.9136 49.5187L15.8168 49.4232C15.8138 49.4202 15.811 49.4167 15.8074 49.4132L15.9189 49.3005C16.2722 49.6229 16.7253 49.7942 17.2446 49.7936C17.752 49.7936 18.3229 49.63 18.9254 49.2845L40.7036 36.77L40.8431 36.9111L40.7018 36.9923L18.9254 49.5062C18.3763 49.8209 17.854 49.9851 17.3823 50.0124C17.336 50.0147 17.2902 50.0159 17.2452 50.0159Z" fill="url(#paint5_linear_802_45)"/>
</g>
</g>
<path id="path4196" d="M15.8072 49.4138C15.3706 48.9466 15.1128 48.2211 15.1128 47.2817V47.2811C15.1128 48.2211 15.3706 48.946 15.8072 49.4132V49.4138Z" fill="black"/>
<g id="g4198">
<g id="g4200">
<path id="path4220" d="M15.8072 49.4132C15.3706 48.946 15.1128 48.2212 15.1128 47.2811V47.06C15.1128 47.9995 15.3706 48.725 15.8072 49.1922L15.9186 49.3001L15.8072 49.4132Z" fill="url(#paint6_linear_802_45)"/>
</g>
</g>
<g id="g4222">
<g id="g4224">
<path id="path4236" d="M15.8074 49.4132L15.9189 49.3001V49.3005L15.8074 49.4132Z" fill="url(#paint7_linear_802_45)"/>
</g>
</g>
<path id="path4238" d="M49.5833 31.286C49.6986 31.0299 49.7567 30.7668 49.7567 30.5035C49.7567 30.503 49.7567 30.5024 49.7567 30.5024C49.7567 30.7662 49.6986 31.0293 49.5833 31.286Z" fill="black"/>
<g id="g4240">
<g id="g4242">
<path id="path4258" d="M40.8429 36.911L40.7034 36.7699L48.1841 32.4708C49.1341 31.925 49.6675 31.2207 49.7566 30.5035C49.7566 30.7667 49.6985 31.0298 49.5832 31.286C49.3504 31.8022 48.884 32.2901 48.1841 32.6925L40.8429 36.911Z" fill="url(#paint8_linear_802_45)"/>
</g>
</g>
<path id="path4260" d="M49.7566 30.5011V30.5005C49.756 29.7068 49.2315 28.9132 48.184 28.3109L40.8429 24.0924H40.8423L40.8429 24.0919L48.184 28.3103C49.2327 28.9126 49.7578 29.7074 49.7566 30.5011Z" fill="#404040"/>
<g id="g4262">
<g id="g4264">
<path id="path4280" d="M49.7567 30.5006C49.6676 29.7816 49.1342 29.078 48.1842 28.532L40.7029 24.2335L40.8424 24.0924H40.843L48.1842 28.3109C49.2316 28.9132 49.7561 29.7068 49.7567 30.5006Z" fill="url(#paint9_linear_802_45)"/>
</g>
</g>
<path id="path4282" d="M15.1128 13.7142C15.1128 13.7136 15.1128 13.713 15.1128 13.7124C15.1128 13.713 15.1128 13.7136 15.1128 13.7142ZM15.1192 13.4676C15.1192 13.4664 15.1192 13.4652 15.1192 13.464C15.1192 13.4652 15.1192 13.4664 15.1192 13.4676ZM15.1197 13.4605C15.1197 13.458 15.1197 13.4558 15.1197 13.4533C15.1197 13.4558 15.1197 13.458 15.1197 13.4605ZM15.1197 13.4515C15.2066 11.8927 16.0447 10.9923 17.2303 10.9869C16.7162 10.99 16.2685 11.1607 15.918 11.4801V11.4795L15.9138 11.4837C15.8769 11.5174 15.8418 11.5531 15.8072 11.5898C15.4133 12.0112 15.1649 12.6424 15.1197 13.4515Z" fill="#404040"/>
<g id="g4284">
<g id="g4286">
<path id="path4306" d="M15.1128 13.9442V13.7226C15.1128 13.7195 15.1128 13.7171 15.1128 13.7142C15.1128 13.7136 15.1128 13.713 15.1128 13.7124C15.1128 13.6288 15.115 13.547 15.1192 13.4676C15.1192 13.4664 15.1192 13.4652 15.1192 13.464C15.1192 13.4629 15.1192 13.4617 15.1197 13.4605C15.1197 13.4581 15.1197 13.4558 15.1197 13.4534C15.1197 13.4528 15.1197 13.4521 15.1197 13.4515C15.1649 12.6425 15.4133 12.0112 15.8072 11.5898L15.9168 11.7012C15.4133 12.1607 15.1128 12.927 15.1128 13.9442ZM15.9138 11.4838L15.918 11.4795C15.9168 11.4813 15.915 11.4825 15.9138 11.4838Z" fill="url(#paint10_linear_802_45)"/>
</g>
</g>
<g id="g4310">
<g id="g4312">
<path id="path4330" d="M40.703 24.2335L18.9254 11.7189C18.3217 11.3728 17.7504 11.2086 17.2416 11.2086C16.7229 11.2086 16.2704 11.3793 15.9171 11.7012L15.8074 11.5898C15.842 11.5531 15.8771 11.5174 15.914 11.4837C15.9152 11.4825 15.917 11.4813 15.9183 11.4801C16.2687 11.1607 16.7164 10.99 17.2305 10.9869C17.2317 10.9869 17.2333 10.9869 17.2351 10.9869C17.2375 10.9869 17.2392 10.9869 17.2416 10.9869C17.7504 10.9869 18.3217 11.1511 18.9254 11.4974L40.8431 24.0919L40.8425 24.0924L40.703 24.2335Z" fill="url(#paint11_linear_802_45)"/>
</g>
</g>
</g>
</g>
<defs>
<linearGradient id="paint0_linear_802_45" x1="32.8578" y1="13.3679" x2="7.39346" y2="38.5463" gradientUnits="userSpaceOnUse">
<stop stop-color="#00A0FF"/>
<stop offset="0.00657445" stop-color="#00A1FF"/>
<stop offset="0.2601" stop-color="#00BEFF"/>
<stop offset="0.5122" stop-color="#00D2FF"/>
<stop offset="0.7604" stop-color="#00DFFF"/>
<stop offset="1" stop-color="#00E3FF"/>
</linearGradient>
<linearGradient id="paint1_linear_802_45" x1="50.9141" y1="30.5021" x2="14.6097" y2="30.5021" gradientUnits="userSpaceOnUse">
<stop stop-color="#FFE000"/>
<stop offset="0.4087" stop-color="#FFBD00"/>
<stop offset="0.7754" stop-color="#FFA500"/>
<stop offset="1" stop-color="#FF9C00"/>
</linearGradient>
<linearGradient id="paint2_linear_802_45" x1="37.3998" y1="33.9841" x2="2.86822" y2="68.1278" gradientUnits="userSpaceOnUse">
<stop stop-color="#FF3A44"/>
<stop offset="1" stop-color="#C31162"/>
</linearGradient>
<linearGradient id="paint3_linear_802_45" x1="11.0989" y1="0.41904" x2="26.5186" y2="15.6656" gradientUnits="userSpaceOnUse">
<stop stop-color="#32A071"/>
<stop offset="0.0685" stop-color="#2DA771"/>
<stop offset="0.4762" stop-color="#15CF74"/>
<stop offset="0.8009" stop-color="#06E775"/>
<stop offset="1" stop-color="#00F076"/>
</linearGradient>
<linearGradient id="paint4_linear_802_45" x1="50.9142" y1="30.5021" x2="14.6098" y2="30.5021" gradientUnits="userSpaceOnUse">
<stop stop-color="#CCB300"/>
<stop offset="0.4087" stop-color="#CC9700"/>
<stop offset="0.7754" stop-color="#CC8400"/>
<stop offset="1" stop-color="#CC7D00"/>
</linearGradient>
<linearGradient id="paint5_linear_802_45" x1="37.3999" y1="33.9841" x2="2.8684" y2="68.1278" gradientUnits="userSpaceOnUse">
<stop stop-color="#CC2E36"/>
<stop offset="1" stop-color="#9C0E4E"/>
</linearGradient>
<linearGradient id="paint6_linear_802_45" x1="32.8578" y1="13.368" x2="7.39346" y2="38.5464" gradientUnits="userSpaceOnUse">
<stop stop-color="#008DE0"/>
<stop offset="0.00657445" stop-color="#008DE0"/>
<stop offset="0.2601" stop-color="#00A7E0"/>
<stop offset="0.5122" stop-color="#00B8E0"/>
<stop offset="0.7604" stop-color="#00C4E0"/>
<stop offset="1" stop-color="#00C7E0"/>
</linearGradient>
<linearGradient id="paint7_linear_802_45" x1="37.4006" y1="33.9844" x2="2.86953" y2="68.1291" gradientUnits="userSpaceOnUse">
<stop stop-color="#E0333C"/>
<stop offset="1" stop-color="#AB0F56"/>
</linearGradient>
<linearGradient id="paint8_linear_802_45" x1="50.9141" y1="30.5021" x2="14.6097" y2="30.5021" gradientUnits="userSpaceOnUse">
<stop stop-color="#E0C500"/>
<stop offset="0.4087" stop-color="#E0A600"/>
<stop offset="0.7754" stop-color="#E09100"/>
<stop offset="1" stop-color="#E08900"/>
</linearGradient>
<linearGradient id="paint9_linear_802_45" x1="50.9142" y1="30.5021" x2="14.6098" y2="30.5021" gradientUnits="userSpaceOnUse">
<stop stop-color="#FFE840"/>
<stop offset="0.4087" stop-color="#FFCE40"/>
<stop offset="0.7754" stop-color="#FFBC40"/>
<stop offset="1" stop-color="#FFB540"/>
</linearGradient>
<linearGradient id="paint10_linear_802_45" x1="32.8578" y1="13.3679" x2="7.39346" y2="38.5463" gradientUnits="userSpaceOnUse">
<stop stop-color="#40B8FF"/>
<stop offset="0.00657445" stop-color="#40B9FF"/>
<stop offset="0.2601" stop-color="#40CEFF"/>
<stop offset="0.5122" stop-color="#40DDFF"/>
<stop offset="0.7604" stop-color="#40E7FF"/>
<stop offset="1" stop-color="#40EAFF"/>
</linearGradient>
<linearGradient id="paint11_linear_802_45" x1="11.0989" y1="0.419043" x2="26.5186" y2="15.6656" gradientUnits="userSpaceOnUse">
<stop stop-color="#65B895"/>
<stop offset="0.0685" stop-color="#62BD95"/>
<stop offset="0.4762" stop-color="#50DB97"/>
<stop offset="0.8009" stop-color="#44ED98"/>
<stop offset="1" stop-color="#40F498"/>
</linearGradient>
</defs>
</svg>
