<svg width="234" height="166" viewBox="0 0 234 166" fill="none" xmlns="http://www.w3.org/2000/svg">
<path id="Vector" d="M83.9557 50.434C80.7164 52.7216 76.2807 53.8339 70.3973 53.8339C63.4848 53.8348 55.7534 52.2859 48.9317 50.9194C44.9107 50.1148 41.1134 49.3542 38.0116 49.0236C36.4923 48.8621 32.415 48.4856 27.3897 48.4856C18.0807 48.4856 6.14195 49.7469 2.13053 55.7564C0.385683 58.3689 0.314018 61.6522 1.91744 65.5155C2.67137 67.3292 4.61879 68.3144 6.50219 69.267C7.9919 70.021 9.53323 70.8007 10.3875 71.9636C11.4013 73.3425 11.9995 75.2737 12.5776 77.1418C13.3478 79.6291 14.1438 82.2014 15.9527 83.7207C18.1953 85.6051 20.6559 86.4823 23.6984 86.4823C25.8092 86.4823 27.9687 86.0552 30.0557 85.6433C32.1187 85.2353 34.2515 84.8139 36.3117 84.8139C38.2887 84.8139 40.0097 85.2057 41.574 86.0112C45.3723 87.9692 46.97 90.6046 48.5161 93.1531C50.5304 96.4765 52.4329 99.6155 58.7052 101.083C71.8278 104.154 75.4245 107.362 84.1134 115.114C85.2333 116.113 86.4373 117.186 87.756 118.343C90.8835 121.089 93.194 124.222 95.4262 127.252C97.4185 129.955 99.4797 132.751 102.13 135.304C105.393 138.444 108.465 139.841 111.436 141.192C115.396 142.992 119.135 144.693 122.529 150.519L123.058 151.432C127.326 158.814 131.642 165.644 134.293 165.644C134.72 165.644 135.087 165.477 135.388 165.147C136.345 164.101 136.603 161.32 136.18 156.644C135.931 153.903 133.951 151.455 132.036 149.086C129.971 146.533 128.021 144.12 128.138 141.455C128.277 138.259 130.21 136.686 132.255 135.022C133.754 133.803 135.302 132.543 136.208 130.592C138.386 125.904 138.914 121.704 139.424 117.644C140.135 111.992 140.805 106.653 145.864 100.613C154.917 89.8067 167.617 81.6434 181.622 77.6262C186.288 76.2885 190.606 75.6377 194.823 75.6377C209.133 75.6377 219.401 83.4217 230.271 91.6624C231.501 92.596 232.745 93.5343 234 94.4707V93.6356C232.883 92.7995 231.773 91.9624 230.675 91.1301C219.712 82.8187 209.358 74.9688 194.823 74.9688C190.543 74.9688 186.165 75.6282 181.438 76.9832C167.305 81.0366 154.489 89.2764 145.35 100.184C140.165 106.374 139.483 111.807 138.761 117.56C138.257 121.57 137.736 125.716 135.602 130.31C134.761 132.122 133.273 133.332 131.834 134.503C129.763 136.187 127.623 137.929 127.47 141.426C127.342 144.344 129.464 146.969 131.516 149.507C133.368 151.797 135.282 154.166 135.514 156.704C136.012 162.204 135.452 164.086 134.894 164.696C134.721 164.887 134.529 164.975 134.293 164.975C131.662 164.975 126.039 155.251 123.638 151.098L123.107 150.182C119.607 144.172 115.772 142.429 111.713 140.583C108.793 139.255 105.774 137.882 102.595 134.822C99.9842 132.309 97.9403 129.537 95.9651 126.855C93.71 123.797 91.3794 120.634 88.1965 117.841C86.8807 116.686 85.6776 115.612 84.5587 114.614C75.78 106.783 72.146 103.542 58.8581 100.432C52.86 99.0278 51.0273 96.0063 49.0875 92.8062C47.4936 90.1784 45.8472 87.4608 41.8797 85.4169C40.219 84.5607 38.3977 84.145 36.3117 84.145C34.1865 84.145 32.0203 84.5731 29.9267 84.9869C27.8694 85.3939 25.7442 85.8134 23.6984 85.8134C20.8221 85.8134 18.4983 84.9859 16.3827 83.2086C14.7248 81.8154 13.9584 79.3395 13.2169 76.944C12.6225 75.0233 12.0072 73.0367 10.9264 71.567C9.97851 70.2761 8.36459 69.4601 6.80416 68.6698C4.94752 67.7315 3.19406 66.8437 2.53568 65.2585C1.02304 61.6149 1.07369 58.5428 2.68667 56.1272C6.53373 50.3642 18.2441 49.1545 27.3897 49.1545C32.3834 49.1545 36.4321 49.5281 37.9409 49.6887C41.0111 50.0164 44.7951 50.7742 48.7999 51.5759C55.6522 52.9481 63.4179 54.5037 70.3973 54.5028C76.424 54.5028 80.9849 53.3503 84.3427 50.9806C92.7048 45.0676 90.3063 36.1513 87.9862 27.5284C85.5085 18.3168 82.9476 8.79088 93.2475 2.57594C94.4821 1.83061 96.1333 1.45223 98.1534 1.45223C104.312 1.45223 112.989 4.81959 121.381 8.07613C128.688 10.9122 135.591 13.5906 140.081 13.6967C140.728 13.712 141.371 13.7187 142.019 13.7187C142.021 13.7187 142.023 13.7187 142.026 13.7187C151.678 13.7187 161.435 12.0551 170.87 10.445C180.289 8.83866 190.029 7.17791 199.646 7.17791C206.374 7.17791 212.446 7.97772 218.212 9.62414C223.543 11.1463 228.805 13.1549 234 15.4549V14.7258C228.868 12.465 223.668 10.487 218.396 8.98106C212.57 7.31744 206.436 6.50804 199.646 6.50804C189.973 6.50804 180.204 8.17456 170.757 9.78563C161.349 11.39 151.621 13.0498 142.026 13.0498C141.371 13.0708 140.741 13.0431 140.096 13.0278C135.723 12.9246 128.874 10.2672 121.622 7.45217C113.174 4.17366 104.438 0.784277 98.1534 0.784277C95.9795 0.784277 94.2614 1.18274 92.9026 2.00261C82.1698 8.47841 84.7985 18.2509 87.3412 27.7013C89.7043 36.4905 91.9375 44.7914 83.9557 50.434" fill="#EFF1F3"/>
</svg>
