<svg width="179" height="100" viewBox="0 0 179 100" fill="none" xmlns="http://www.w3.org/2000/svg">
<path id="Vector" d="M176.914 25.4048C172.064 18.3907 159.311 15.1956 149.515 15.1956C146.499 15.1956 143.7 15.4696 141.196 16.0096C131.98 17.9943 124.12 19.7782 117.185 21.3521C98.6133 25.5679 87.4035 28.1135 78.0845 28.1135C70.327 28.1135 63.6784 26.3811 54.3692 21.936C44.6499 17.293 37.5179 12.8753 31.7871 9.32524C22.8 3.75837 16.8626 0.0813904 8.73624 0.0813904C6.07823 0.0813904 3.21417 0.492279 0 1.32935V2.01543C3.21903 1.16689 6.08458 0.750275 8.73624 0.750275C16.6722 0.750275 22.5452 4.38712 31.4348 9.89408C37.1793 13.4525 44.3288 17.8804 54.0807 22.5381C63.4884 27.0318 70.2184 28.7824 78.0845 28.7824C87.4781 28.7824 98.7156 26.2311 117.334 22.0047C124.266 20.4298 132.125 18.6468 141.336 16.6621C143.795 16.1328 146.546 15.8641 149.515 15.8641C159.142 15.8641 171.65 18.9689 176.363 25.7858C178.441 28.791 178.781 32.2082 177.372 35.9398C174.56 43.39 161.419 49.9718 149.825 55.7787C142.817 59.2885 136.197 62.6035 132.795 65.6791C122.847 74.6741 125.233 86.86 129.271 100H129.972C125.964 86.9958 123.547 74.9443 133.244 66.1763C136.578 63.1604 143.158 59.8648 150.124 56.377C161.828 50.5146 175.093 43.8715 177.998 36.1763C179.489 32.2253 179.125 28.6018 176.914 25.4048Z" fill="#EFF1F3"/>
</svg>
